#!OML:ASF H:\Not Pregnant\Project 1\Capture day 1\Session 1\non-pregnant.ASF
:FULLY-SPECIFIED
:DEGREES
1001
root 12.2835 15.9382 18.1458 15.3248 -14.1031 1.71974
lowerback -4.91803 2.67732 6.50902
upperback -1.38937 3.24227 -0.0794953
thorax 1.68407 1.6366 -3.51452
lowerneck 12.8286 -6.16806 -34.6442
upperneck 9.65228 -13.5519 19.1692
head 4.5435 -7.90097 11.5648
rclavicle -1.0138e-014 -7.15625e-015
rhumerus -25.0655 33.4834 -107.082
rradius 31.9548
rwrist 10.1474
rhand -4.0454 -1.25014
rfingers 7.12502
rthumb 21.7104 -30.0527
lclavicle -1.0138e-014 -7.15625e-015
lhumerus -44.3525 1.22083 87.0618
lradius 26.0044
lwrist 36.5628
lhand -17.7801 -3.41809
lfingers 7.12502
lthumb 8.48259 26.3915
rfemur -42.8782 -3.1373 27.6504
rtibia 33.352
rfoot -5.5068 5.50087
rtoes -3.90026
lfemur -10.4117 -0.520662 -22.5837
ltibia 38.6675
lfoot 12.8401 -22.9817
ltoes 0.075411
1002
root 12.2378 15.9482 18.2448 15.2187 -13.6521 1.65219
lowerback -4.7371 2.4666 6.71115
upperback -1.39518 2.9622 0.114831
thorax 1.54567 1.49248 -3.45534
lowerneck 12.7215 -6.16387 -34.7341
upperneck 9.55358 -13.5121 19.1516
head 4.52482 -7.87383 11.5679
rclavicle 5.50634e-014 1.82882e-014
rhumerus -25.5936 34.5428 -107.455
rradius 32.3795
rwrist 10.6789
rhand -3.6617 -0.435428
rfingers 7.12502
rthumb 22.0788 -29.195
lclavicle 5.50634e-014 1.82882e-014
lhumerus -44.4082 -0.569808 88.2237
lradius 26.1373
lwrist 34.7897
lhand -18.2186 -4.52463
lfingers 7.12502
lthumb 8.05937 25.3017
rfemur -42.3584 -3.77169 27.9274
rtibia 33.457
rfoot -6.11997 5.61514
rtoes -3.75613
lfemur -11.2152 -0.462036 -22.0739
ltibia 40.1895
lfoot 14.7618 -22.9755
ltoes -0.770945
1003
root 12.1915 15.9578 18.3428 15.1267 -13.2213 1.58017
lowerback -4.58102 2.26371 6.88325
upperback -1.41001 2.69345 0.317935
thorax 1.41121 1.35366 -3.36697
lowerneck 12.6379 -6.16077 -34.8113
upperneck 9.44633 -13.4775 19.1121
head 4.49894 -7.84938 11.5611
rclavicle 9.34288e-015 -1.90833e-014
rhumerus -26.1494 35.6099 -107.803
rradius 32.8691
rwrist 11.1718
rhand -3.29571 0.37007
rfingers 7.12502
rthumb 22.4301 -28.3475
lclavicle 9.34288e-015 -1.90833e-014
lhumerus -44.4943 -2.42649 89.4238
lradius 26.3251
lwrist 33.204
lhand -18.6357 -5.74212
lfingers 7.12502
lthumb 7.65678 24.0993
rfemur -41.8496 -4.39495 28.2029
rtibia 33.5433
rfoot -6.71535 5.74838
rtoes -3.57153
lfemur -12.0489 -0.435026 -21.5676
ltibia 41.6653
lfoot 15.9694 -23.2272
ltoes -3.0657
1004
root 12.1451 15.9666 18.4393 15.0575 -12.8147 1.47662
lowerback -4.4476 2.07484 7.06199
upperback -1.42689 2.44214 0.533507
thorax 1.28919 1.22375 -3.26589
lowerneck 12.5588 -6.16719 -34.8678
upperneck 9.33138 -13.4517 19.0454
head 4.46921 -7.82803 11.5397
rclavicle -1.68967e-014 2.46493e-014
rhumerus -26.7069 36.6828 -108.113
rradius 33.4118
rwrist 11.5993
rhand -2.90992 1.10631
rfingers 7.12502
rthumb 22.8004 -27.5662
lclavicle -1.68967e-014 2.46493e-014
lhumerus -44.5822 -4.3068 90.6342
lradius 26.5557
lwrist 31.8543
lhand -19.0209 -7.0051
lfingers 7.12502
lthumb 7.28494 22.8495
rfemur -41.353 -4.97966 28.5001
rtibia 33.6041
rfoot -7.28117 5.89151
rtoes -3.36104
lfemur -12.9257 -0.409407 -21.0438
ltibia 43.1142
lfoot 16.5238 -23.6987
ltoes -5.99884
1005
root 12.0986 15.9742 18.5341 15.0237 -12.4533 1.33009
lowerback -4.34672 1.90803 7.25731
upperback -1.4493 2.21763 0.761888
thorax 1.18295 1.10747 -3.15685
lowerneck 12.4999 -6.17524 -34.9078
upperneck 9.20226 -13.4298 18.9546
head 4.43031 -7.80807 11.5069
rclavicle -5.66536e-014 -1.11319e-014
rhumerus -27.2655 37.7639 -108.393
rradius 33.9956
rwrist 11.9122
rhand -2.51749 1.73551
rfingers 7.12502
rthumb 23.177 -26.8901
lclavicle -5.66536e-014 -1.11319e-014
lhumerus -44.6625 -6.18262 91.8329
lradius 26.8245
lwrist 30.779
lhand -19.3573 -8.28641
lfingers 7.12502
lthumb 6.96022 21.5792
rfemur -40.8784 -5.50585 28.8323
rtibia 33.6394
rfoot -7.81487 6.05415
rtoes -3.12946
lfemur -13.8567 -0.343481 -20.4978
ltibia 44.5478
lfoot 16.5674 -24.2515
ltoes -8.91286
1006
root 12.0518 15.9802 18.6271 15.0262 -12.163 1.11755
lowerback -4.26916 1.77224 7.48395
upperback -1.47192 2.03154 1.00606
thorax 1.09438 1.01078 -3.04487
lowerneck 12.4469 -6.18761 -34.9312
upperneck 9.06392 -13.4115 18.8464
head 4.38637 -7.78892 11.4647
rclavicle 1.21259e-014 -1.27222e-014
rhumerus -27.8131 38.8584 -108.645
rradius 34.6118
rwrist 12.0883
rhand -2.11316 2.21864
rfingers 7.12502
rthumb 23.5649 -26.3576
lclavicle 1.21259e-014 -1.27222e-014
lhumerus -44.7185 -8.01086 92.9859
lradius 27.1291
lwrist 29.9513
lhand -19.5849 -9.46424
lfingers 7.12502
lthumb 6.74053 20.4085
rfemur -40.4186 -5.93705 29.2213
rtibia 33.648
rfoot -8.31596 6.23067
rtoes -2.91085
lfemur -14.8377 -0.191188 -19.9087
ltibia 45.976
lfoot 16.1874 -24.7554
ltoes -11.6678
1007
root 12.0055 15.984 18.7187 15.0518 -11.9328 0.848435
lowerback -4.20738 1.66792 7.7568
upperback -1.49426 1.88453 1.25612
thorax 1.02041 0.933911 -2.94902
lowerneck 12.4198 -6.20057 -34.9431
upperneck 8.91153 -13.4005 18.7335
head 4.33487 -7.77335 11.4197
rclavicle 4.23411e-014 -1.11319e-014
rhumerus -28.3501 39.9489 -108.872
rradius 35.2477
rwrist 12.0986
rhand -1.72258 2.55017
rfingers 7.12502
rthumb 23.9394 -25.9774
lclavicle 4.23411e-014 -1.11319e-014
lhumerus -44.7459 -9.78596 94.0748
lradius 27.4575
lwrist 29.3255
lhand -19.6739 -10.4881
lfingers 7.12502
lthumb 6.65463 19.3874
rfemur -39.9647 -6.29459 29.6606
rtibia 33.6387
rfoot -8.79239 6.42098
rtoes -2.71616
lfemur -15.8522 0.036847 -19.2851
ltibia 47.3929
lfoot 15.4312 -25.1064
ltoes -14.2246
